<?xml version="1.0" encoding="UTF-8"?>
<!DOCTYPE svg PUBLIC "-//W3C//DTD SVG 1.1//EN" "http://www.w3.org/Graphics/SVG/1.1/DTD/svg11.dtd">
<!-- Creator: CorelDRAW 2021 (64 Bit) -->
<svg xmlns="http://www.w3.org/2000/svg" xml:space="preserve" width="191.18mm" height="49.4768mm" version="1.1" style="shape-rendering:geometricPrecision; text-rendering:geometricPrecision; image-rendering:optimizeQuality; fill-rule:evenodd; clip-rule:evenodd"
viewBox="0 0 19118 4947.68"
 xmlns:xlink="http://www.w3.org/1999/xlink"
 xmlns:xodm="http://www.corel.com/coreldraw/odm/2003">
 <defs>
  <style type="text/css">
   <![CDATA[
    .fil0 {fill:none}
    .fil1 {fill:white;fill-rule:nonzero}
   ]]>
  </style>
 </defs>
 <g id="Camada_x0020_1">
  <metadata id="CorelCorpID_0Corel-Layer"/>
  <g id="_2907920402688">
   <polygon class="fil0" points="-8.33,6.88 19109.67,6.88 19109.67,4954.57 -8.33,4954.57 "/>
   <path class="fil1" d="M-7.14 645.73l0 2558.07 801.27 0 0 -1231.33 614.15 0c446.2,0 585.35,-358.94 604.53,-717.89l-1218.68 0 0 -513.43 1213.89 0 0 -717.9 -1353.04 0c-441.41,0 -662.12,258.99 -662.12,622.48zm5713.92 2558.07l0 -717.9 -1074.76 0 0 -2449.02c-86.37,-13.63 -148.74,-22.72 -187.12,-22.72 -355.05,4.55 -614.15,281.71 -614.15,636.11l0 2553.53 1876.03 0zm3022.23 49.98c815.65,0 1242.68,-422.56 1242.68,-1367.64l0 -1862.89 -806.07 0 0 1944.68c0,377.12 -134.34,563.41 -427.02,563.41 -287.89,0 -412.63,-181.74 -412.63,-549.78l0 -1935.59c-110.35,-18.17 -196.72,-27.26 -268.68,-27.26 -340.66,0 -532.59,204.46 -532.59,613.39l0 1254.04c0,963.26 403.04,1367.64 1204.31,1367.64zm3036.62 -3230.53l1189.9 3180.55 714.9 0 1199.5 -3148.74c-167.92,-31.81 -302.27,-54.53 -407.83,-54.53 -249.49,0 -455.8,122.68 -590.14,486.17l-542.19 1453.97 -719.69 -1917.42 -844.45 0zm6102.55 3230.53c815.65,0 1242.68,-422.56 1242.68,-1367.64l0 -1862.89 -806.06 0 0 1944.68c0,377.12 -134.34,563.41 -427.03,563.41 -287.88,0 -412.62,-181.74 -412.62,-549.78l0 -1935.59c-110.35,-18.17 -196.72,-27.26 -268.69,-27.26 -340.66,0 -532.58,204.46 -532.58,613.39l0 1254.04c0,963.26 403.03,1367.64 1204.3,1367.64z"/>
   <path class="fil1" d="M5.84 4673.61l104.99 -9.29c4.91,41.8 16.51,76.05 34.8,102.94 18.28,26.71 46.6,48.38 84.94,65.02 38.34,16.45 81.59,24.77 129.57,24.77 42.67,0 80.22,-6.19 112.86,-18.77 32.64,-12.58 56.82,-29.8 72.74,-51.67 15.94,-21.86 23.99,-45.66 23.99,-71.21 0,-25.93 -7.67,-48.56 -23,-68.11 -15.33,-19.35 -40.7,-35.6 -76.1,-48.95 -22.6,-8.52 -72.74,-22.06 -150.4,-40.45 -77.67,-18.38 -131.93,-35.6 -163,-51.85 -40.31,-20.9 -70.2,-46.83 -89.86,-77.6 -19.85,-30.77 -29.69,-65.4 -29.69,-103.52 0,-42.19 12.19,-81.47 36.38,-117.84 24.18,-36.58 59.38,-64.25 105.98,-83.21 46.4,-18.96 98.11,-28.45 154.93,-28.45 62.52,0 117.78,9.87 165.56,29.8 47.78,19.74 84.54,48.96 110.3,87.66 25.75,38.51 39.51,82.24 41.48,131l-107.35 8.13c-5.7,-52.44 -25.17,-92.11 -58.39,-118.81 -33.23,-26.9 -82.39,-40.25 -147.27,-40.25 -67.64,0 -116.99,12.19 -147.86,36.57 -30.87,24.38 -46.4,53.79 -46.4,88.24 0,29.8 11.01,54.37 32.83,73.72 21.64,19.16 77.66,39.09 168.5,59.21 90.84,20.32 153.17,37.93 186.99,53.02 48.95,22.26 85.33,50.31 108.73,84.56 23.39,34.06 35,73.34 35,117.85 0,44.31 -12.79,85.72 -38.54,124.8 -25.75,39.09 -62.53,69.47 -110.7,91.14 -48.16,21.68 -102.24,32.51 -162.6,32.51 -76.29,0 -140.19,-11.03 -191.71,-32.89 -51.7,-21.87 -92.01,-54.76 -121.31,-98.88 -29.49,-43.93 -44.83,-93.66 -46.39,-149.19zm1005.82 267.03l0 -831.28 609.91 0 0 97.52 -497.83 0 0 255.42 465.97 0 0 97.53 -465.97 0 0 283.29 517.89 0 0 97.52 -629.97 0zm963.36 0l0 -831.28 114.82 0 443.18 652.48 0 -652.48 107.36 0 0 831.28 -114.83 0 -443.18 -652.49 0 652.49 -107.35 0zm996.59 -267.03l104.99 -9.29c4.91,41.8 16.51,76.05 34.8,102.94 18.28,26.71 46.6,48.38 84.94,65.02 38.34,16.45 81.59,24.77 129.57,24.77 42.67,0 80.22,-6.19 112.86,-18.77 32.64,-12.58 56.82,-29.8 72.75,-51.67 15.93,-21.86 23.99,-45.66 23.99,-71.21 0,-25.93 -7.68,-48.56 -23.01,-68.11 -15.33,-19.35 -40.7,-35.6 -76.1,-48.95 -22.6,-8.52 -72.74,-22.06 -150.4,-40.45 -77.67,-18.38 -131.93,-35.6 -163,-51.85 -40.31,-20.9 -70.2,-46.83 -89.86,-77.6 -19.85,-30.77 -29.69,-65.4 -29.69,-103.52 0,-42.19 12.2,-81.47 36.38,-117.84 24.18,-36.58 59.38,-64.25 105.98,-83.21 46.4,-18.96 98.11,-28.45 154.93,-28.45 62.53,0 117.78,9.87 165.56,29.8 47.78,19.74 84.54,48.96 110.3,87.66 25.76,38.51 39.51,82.24 41.48,131l-107.35 8.13c-5.7,-52.44 -25.17,-92.11 -58.39,-118.81 -33.23,-26.9 -82.39,-40.25 -147.27,-40.25 -67.64,0 -116.99,12.19 -147.86,36.57 -30.87,24.38 -46.4,53.79 -46.4,88.24 0,29.8 11.01,54.37 32.83,73.72 21.64,19.16 77.67,39.09 168.51,59.21 90.83,20.32 153.16,37.93 186.98,53.02 48.95,22.26 85.33,50.31 108.73,84.56 23.39,34.06 35,73.34 35,117.85 0,44.31 -12.79,85.72 -38.54,124.8 -25.75,39.09 -62.52,69.47 -110.7,91.14 -48.16,21.68 -102.24,32.51 -162.6,32.51 -76.28,0 -140.19,-11.03 -191.7,-32.89 -51.71,-21.87 -92.02,-54.76 -121.32,-98.88 -29.48,-43.93 -44.83,-93.66 -46.39,-149.19zm969.25 -137.58c0,-137.78 37.75,-245.75 113.05,-323.73 75.31,-77.98 172.44,-116.88 291.58,-116.88 78.07,0 148.26,18.39 210.98,54.96 62.53,36.57 110.31,87.66 143.14,153.25 32.84,65.41 49.35,139.71 49.35,222.72 0,84.18 -17.3,159.64 -51.9,226.01 -34.61,66.57 -83.57,116.88 -146.88,150.93 -63.51,34.25 -131.93,51.28 -205.27,51.28 -79.63,0 -150.61,-18.96 -213.33,-56.69 -62.53,-37.74 -110.11,-89.21 -142.35,-154.61 -32.24,-65.21 -48.37,-134.29 -48.37,-207.24zm115.61 1.93c0,100.04 27.33,178.8 81.99,236.27 54.66,57.47 123.28,86.3 205.86,86.3 84.15,0 153.16,-29.02 207.63,-87.08 54.27,-58.05 81.4,-140.48 81.4,-247.29 0,-67.53 -11.61,-126.55 -34.8,-176.86 -23.2,-50.31 -57.22,-89.4 -101.85,-117.07 -44.83,-27.67 -94.96,-41.6 -150.61,-41.6 -79.04,0 -147.07,26.7 -204.09,80.11 -57.01,53.4 -85.53,142.41 -85.53,267.22zm1018.61 402.68l0 -831.28 374.36 0c75.31,0 132.52,7.54 171.64,22.44 39.13,14.9 70.4,41.22 93.79,78.95 23.4,37.73 35.01,79.53 35.01,125.2 0,59.02 -19.47,108.75 -58.21,149.19 -38.73,40.44 -98.5,65.98 -179.51,77.01 29.69,13.93 52.1,27.86 67.45,41.41 32.63,29.41 63.5,66.37 92.4,110.68l146.09 226.4 -139.6 0 -111.68 -172.99c-32.44,-50.12 -59.38,-88.24 -80.41,-114.75 -21.24,-26.51 -40.12,-44.89 -56.83,-55.53 -16.51,-10.45 -33.62,-17.8 -50.92,-22.06 -12.59,-2.52 -33.24,-3.87 -62.13,-3.87l-129.37 0 0 369.2 -112.08 0zm112.08 -464.4l239.87 0c51.12,0 90.84,-5.23 119.54,-15.68 28.71,-10.25 50.53,-26.89 65.28,-49.92 14.94,-22.83 22.41,-47.6 22.41,-74.5 0,-39.28 -14.35,-71.79 -43.25,-97.14 -28.91,-25.35 -74.52,-37.92 -136.85,-37.92l-267 0 0 275.16zm919.9 464.4l0 -831.28 609.91 0 0 97.52 -497.84 0 0 255.42 465.98 0 0 97.53 -465.98 0 0 283.29 517.89 0 0 97.52 -629.96 0zm927.97 -267.03l104.99 -9.29c4.91,41.8 16.51,76.05 34.8,102.94 18.28,26.71 46.6,48.38 84.94,65.02 38.34,16.45 81.59,24.77 129.57,24.77 42.67,0 80.22,-6.19 112.86,-18.77 32.64,-12.58 56.82,-29.8 72.74,-51.67 15.94,-21.86 24,-45.66 24,-71.21 0,-25.93 -7.68,-48.56 -23.01,-68.11 -15.33,-19.35 -40.7,-35.6 -76.1,-48.95 -22.6,-8.52 -72.74,-22.06 -150.4,-40.45 -77.67,-18.38 -131.93,-35.6 -163,-51.85 -40.31,-20.9 -70.2,-46.83 -89.86,-77.6 -19.85,-30.77 -29.69,-65.4 -29.69,-103.52 0,-42.19 12.19,-81.47 36.38,-117.84 24.18,-36.58 59.38,-64.25 105.98,-83.21 46.4,-18.96 98.11,-28.45 154.93,-28.45 62.52,0 117.78,9.87 165.56,29.8 47.78,19.74 84.54,48.96 110.3,87.66 25.75,38.51 39.51,82.24 41.48,131l-107.35 8.13c-5.7,-52.44 -25.17,-92.11 -58.39,-118.81 -33.23,-26.9 -82.39,-40.25 -147.27,-40.25 -67.64,0 -116.99,12.19 -147.86,36.57 -30.87,24.38 -46.4,53.79 -46.4,88.24 0,29.8 11.01,54.37 32.83,73.72 21.64,19.16 77.66,39.09 168.5,59.21 90.84,20.32 153.17,37.93 186.99,53.02 48.95,22.26 85.33,50.31 108.73,84.56 23.39,34.06 35,73.34 35,117.85 0,44.31 -12.79,85.72 -38.54,124.8 -25.75,39.09 -62.53,69.47 -110.7,91.14 -48.16,21.68 -102.24,32.51 -162.6,32.51 -76.29,0 -140.19,-11.03 -191.7,-32.89 -51.71,-21.87 -92.02,-54.76 -121.32,-98.88 -29.49,-43.93 -44.83,-93.66 -46.39,-149.19zm1677.86 267.03l0 -831.28 112.08 0 0 831.28 -112.08 0zm487.75 0l0 -831.28 114.82 0 443.18 652.48 0 -652.48 107.36 0 0 831.28 -114.83 0 -443.17 -652.49 0 652.49 -107.36 0zm1247.86 0l0 -733.76 -278.41 0 0 -97.52 668.9 0 0 97.52 -278.41 0 0 733.76 -112.08 0zm688.29 0l0 -831.28 609.91 0 0 97.52 -497.83 0 0 255.42 465.98 0 0 97.53 -465.98 0 0 283.29 517.89 0 0 97.52 -629.97 0zm959.82 0l0 -831.28 112.07 0 0 733.76 415.27 0 0 97.52 -527.34 0zm859.75 0l0 -831.28 112.07 0 0 831.28 -112.07 0zm884.13 -326.24l0 -97.53 357.45 0 0 308.06c-54.85,42.95 -111.48,75.46 -169.88,97.13 -58.39,21.68 -118.36,32.51 -179.7,32.51 -82.98,0 -158.28,-17.41 -226.12,-52.44 -67.64,-34.83 -118.95,-85.52 -153.36,-151.51 -34.61,-66.18 -51.91,-140.09 -51.91,-221.56 0,-80.88 17.11,-156.35 51.51,-226.59 34.41,-70.05 83.76,-122.1 148.25,-155.96 64.5,-34.06 138.81,-51.09 222.97,-51.09 60.95,0 116.2,9.68 165.55,29.22 49.35,19.55 88.09,46.64 116.01,81.27 28.12,34.83 49.35,80.31 63.89,136.23l-100.85 27.09c-12.79,-42.18 -28.52,-75.47 -47.19,-99.85 -18.88,-24.18 -45.62,-43.54 -80.62,-58.05 -34.8,-14.51 -73.54,-21.86 -116.2,-21.86 -50.92,0 -94.97,7.74 -132.32,23.02 -37.17,15.29 -67.05,35.41 -90.06,60.57 -22.8,24.96 -40.5,52.44 -53.08,82.24 -21.43,51.66 -32.25,107.39 -32.25,167.57 0,74.3 12.98,136.42 38.73,186.54 25.96,49.92 63.71,87.07 113.07,111.26 49.54,24.19 102.03,36.38 157.68,36.38 48.37,0 95.56,-9.29 141.57,-27.67 46,-18.58 80.8,-38.12 104.6,-59.21l0 -155.77 -247.74 0zm704.8 326.24l0 -831.28 609.91 0 0 97.52 -497.83 0 0 255.42 465.98 0 0 97.53 -465.98 0 0 283.29 517.89 0 0 97.52 -629.97 0zm963.36 0l0 -831.28 114.82 0 443.18 652.48 0 -652.48 107.36 0 0 831.28 -114.83 0 -443.18 -652.49 0 652.49 -107.35 0zm1247.86 0l0 -733.76 -278.41 0 0 -97.52 668.9 0 0 97.52 -278.41 0 0 733.76 -112.08 0zm688.29 0l0 -831.28 609.91 0 0 97.52 -497.83 0 0 255.42 465.98 0 0 97.53 -465.98 0 0 283.29 517.89 0 0 97.52 -629.97 0zm927.97 -267.03l105 -9.29c4.9,41.8 16.51,76.05 34.8,102.94 18.28,26.71 46.6,48.38 84.93,65.02 38.34,16.45 81.6,24.77 129.58,24.77 42.66,0 80.22,-6.19 112.86,-18.77 32.63,-12.58 56.82,-29.8 72.74,-51.67 15.93,-21.86 23.99,-45.66 23.99,-71.21 0,-25.93 -7.67,-48.56 -23,-68.11 -15.34,-19.35 -40.71,-35.6 -76.1,-48.95 -22.61,-8.52 -72.74,-22.06 -150.4,-40.45 -77.68,-18.38 -131.94,-35.6 -163.01,-51.85 -40.31,-20.9 -70.19,-46.83 -89.85,-77.6 -19.86,-30.77 -29.69,-65.4 -29.69,-103.52 0,-42.19 12.19,-81.47 36.37,-117.84 24.19,-36.58 59.38,-64.25 105.98,-83.21 46.41,-18.96 98.12,-28.45 154.94,-28.45 62.52,0 117.78,9.87 165.55,29.8 47.78,19.74 84.54,48.96 110.3,87.66 25.76,38.51 39.52,82.24 41.49,131l-107.35 8.13c-5.7,-52.44 -25.17,-92.11 -58.4,-118.81 -33.22,-26.9 -82.38,-40.25 -147.26,-40.25 -67.64,0 -117,12.19 -147.87,36.57 -30.87,24.38 -46.39,53.79 -46.39,88.24 0,29.8 11,54.37 32.83,73.72 21.63,19.16 77.66,39.09 168.5,59.21 90.84,20.32 153.17,37.93 186.98,53.02 48.96,22.26 85.34,50.31 108.74,84.56 23.39,34.06 34.99,73.34 34.99,117.85 0,44.31 -12.78,85.72 -38.54,124.8 -25.75,39.09 -62.52,69.47 -110.69,91.14 -48.17,21.68 -102.24,32.51 -162.6,32.51 -76.29,0 -140.19,-11.03 -191.71,-32.89 -51.71,-21.87 -92.02,-54.76 -121.31,-98.88 -29.49,-43.93 -44.83,-93.66 -46.4,-149.19z"/>
  </g>
 </g>
</svg>
